HIERARCHY
ROOT Hips
{
	OFFSET -0.001795 -0.223333 0.028219
	CHANNELS 6 Xposition Yposition Zposition Zrotation Yrotation Xrotation 
	JOINT LeftUpLeg
	{
		OFFSET 0.069520 -0.091406 -0.006815
		CHANNELS 3 Zrotation Yrotation Xrotation
		JOINT LeftLeg
		{
			OFFSET 0.034277 -0.375199 -0.004496
			CHANNELS 3 Zrotation Yrotation Xrotation
			JOINT LeftFoot
			{
				OFFSET -0.013596 -0.397961 -0.043693
				CHANNELS 3 Zrotation Yrotation Xrotation
				JOINT LeftToe
				{
					OFFSET 0.026358 -0.055791 0.119288
					CHANNELS 3 Zrotation Yrotation Xrotation
					End Site
					{
						OFFSET 0.000000 0.000000 0.000000
					}
				}
			}
		}
	}
	JOINT RightUpLeg
	{
		OFFSET -0.067670 -0.090522 -0.004320
		CHANNELS 3 Zrotation Yrotation Xrotation
		JOINT RightLeg
		{
			OFFSET -0.038290 -0.382569 -0.008850
			CHANNELS 3 Zrotation Yrotation Xrotation
			JOINT RightFoot
			{
				OFFSET 0.015774 -0.398415 -0.042312
				CHANNELS 3 Zrotation Yrotation Xrotation
				JOINT RightToe
				{
					OFFSET -0.025372 -0.048144 0.123348
					CHANNELS 3 Zrotation Yrotation Xrotation
					End Site
					{
						OFFSET 0.000000 0.000000 0.000000
					}
				}
			}
		}
	}
	JOINT Spine
	{
		OFFSET -0.002533 0.108963 -0.026696
		CHANNELS 3 Zrotation Yrotation Xrotation
		JOINT Spine1
		{
			OFFSET 0.005487 0.135180 0.001092
			CHANNELS 3 Zrotation Yrotation Xrotation
			JOINT Spine2
			{
				OFFSET 0.001457 0.052922 0.025425
				CHANNELS 3 Zrotation Yrotation Xrotation
				JOINT Neck
				{
					OFFSET -0.002778 0.213870 -0.042857
					CHANNELS 3 Zrotation Yrotation Xrotation
					JOINT Head
					{
						OFFSET 0.005152 0.064970 0.051349
						CHANNELS 3 Zrotation Yrotation Xrotation
						End Site
						{
							OFFSET 0.000000 0.000000 0.000000
						}
					}
				}
				JOINT LeftShoulder
				{
					OFFSET 0.078845 0.121749 -0.034090
					CHANNELS 3 Zrotation Yrotation Xrotation
					JOINT LeftArm
					{
						OFFSET 0.090977 0.030469 -0.008868
						CHANNELS 3 Zrotation Yrotation Xrotation
						JOINT LeftForeArm
						{
							OFFSET 0.259612 -0.012772 -0.027456
							CHANNELS 3 Zrotation Yrotation Xrotation
							JOINT LeftHand
							{
								OFFSET 0.249234 0.008986 -0.001171
								CHANNELS 3 Zrotation Yrotation Xrotation
								End Site
								{
									OFFSET 0.000000 0.000000 0.000000
								}
							}
						}
					}
				}
				JOINT RightShoulder
				{
					OFFSET -0.081759 0.118833 -0.038615
					CHANNELS 3 Zrotation Yrotation Xrotation
					JOINT RightArm
					{
						OFFSET -0.096012 0.032551 -0.009143
						CHANNELS 3 Zrotation Yrotation Xrotation
						JOINT RightForeArm
						{
							OFFSET -0.253742 -0.013329 -0.021401
							CHANNELS 3 Zrotation Yrotation Xrotation
							JOINT RightHand
							{
								OFFSET -0.255298 0.007772 -0.005559
								CHANNELS 3 Zrotation Yrotation Xrotation
								End Site
								{
									OFFSET 0.000000 0.000000 0.000000
								}
							}
						}
					}
				}
			}
		}
	}
}
MOTION
Frames: 7
Frame Time: 0.050000
0.012812 0.935316 -0.046715 -3.281041 3.077989 5.904744 3.284093 -0.151897 -0.696191 6.235500 0.233984 -10.165495 0.947874 6.239018 11.082609 0.000000 0.000000 0.000000 -1.811210 0.723461 -7.848008 -0.351619 0.097109 1.429811 -0.584281 -3.524144 5.199626 0.000000 0.000000 0.000000 -2.197980 0.157189 -4.894398 0.446110 -0.180952 -0.815775 4.205577 -2.617890 -4.051785 -3.521914 2.779097 -3.859629 0.000000 0.000000 0.000000 -9.789695 -3.613583 0.794582 -61.403050 -24.899119 7.189679 -151.067201 -74.889964 148.670151 0.000000 0.000000 0.000000 5.080241 14.223781 4.886170 29.063165 42.597702 7.058324 -179.391155 75.506448 -175.906882 0.000000 0.000000 0.000000 
0.012850 0.935539 -0.047953 -3.315131 2.895533 6.026328 3.360034 -0.161013 -0.811015 6.252322 0.238739 -10.218345 1.062855 6.346213 10.887812 0.000000 0.000000 0.000000 -1.735833 0.747412 -8.087848 -0.394840 0.102493 1.432349 -0.454600 -3.215167 5.116104 0.000000 0.000000 0.000000 -2.294253 0.159607 -4.997102 0.644296 -0.274093 -0.792109 4.282007 -2.731987 -3.749769 -3.339151 2.645899 -3.727149 0.000000 0.000000 0.000000 -9.275086 -3.459302 0.782630 -61.835677 -25.445305 7.582182 -151.286177 -74.099638 148.696625 0.000000 0.000000 0.000000 5.152332 14.037945 4.794009 31.592122 42.580322 7.859534 178.661485 76.034003 -178.619369 0.000000 0.000000 0.000000 
0.012728 0.935911 -0.049697 -3.312565 2.707795 6.138846 3.497428 -0.174900 -0.985245 6.114977 0.235851 -10.150737 1.037712 6.302703 10.950444 0.000000 0.000000 0.000000 -1.622918 0.776391 -8.369822 -0.482855 0.110907 1.378670 -0.310460 -2.953036 5.250471 0.000000 0.000000 0.000000 -2.318318 0.160611 -4.965140 0.705888 -0.315941 -0.495807 4.361885 -2.578190 -3.834347 -3.416267 2.700790 -3.809071 0.000000 0.000000 0.000000 -8.789654 -3.510664 0.821720 -62.385659 -25.991869 8.020973 -151.806112 -73.014918 148.734869 0.000000 0.000000 0.000000 5.719764 13.730001 4.675625 34.567581 42.619421 8.883571 175.750369 76.624399 177.589793 0.000000 0.000000 0.000000 
0.012576 0.936009 -0.051744 -3.365843 2.524828 6.384075 3.679018 -0.203395 -1.377111 6.157207 0.249655 -10.311577 1.150763 6.496114 11.043186 0.000000 0.000000 0.000000 -1.420017 0.819166 -8.754363 -0.521122 0.106326 1.164995 -0.217504 -2.782793 5.317556 0.000000 0.000000 0.000000 -2.464673 0.164357 -5.110585 0.850318 -0.392647 -0.289043 4.583258 -2.613075 -3.863989 -3.450738 2.724308 -4.034536 0.000000 0.000000 0.000000 -8.556348 -3.471687 0.837236 -62.576242 -26.593730 8.446641 -153.550567 -72.408941 150.829225 0.000000 0.000000 0.000000 5.686351 13.776886 4.673469 37.043507 43.030563 9.843915 175.407370 77.432245 177.037261 0.000000 0.000000 0.000000 
0.012422 0.936280 -0.053879 -3.371449 2.432857 6.577285 3.801654 -0.223985 -1.672015 6.155571 0.259205 -10.416507 1.102051 6.468806 11.254134 0.000000 0.000000 0.000000 -1.310360 0.855531 -9.110935 -0.599023 0.111520 1.074966 0.034681 -2.258468 5.413654 0.000000 0.000000 0.000000 -2.514817 0.166665 -5.163025 0.881354 -0.409994 -0.223470 4.618959 -2.453235 -3.915259 -3.344512 2.647835 -3.956457 0.000000 0.000000 0.000000 -8.265160 -3.539603 0.866789 -63.085925 -27.134582 8.875229 -155.086128 -71.809676 152.498874 0.000000 0.000000 0.000000 5.961057 13.668143 4.641095 39.351088 43.552427 10.841578 174.576509 77.928344 176.043334 0.000000 0.000000 0.000000 
0.012281 0.936465 -0.055793 -3.460183 2.385906 6.761017 3.955596 -0.245397 -1.973821 6.362509 0.295075 -10.860372 0.924220 6.351892 11.849067 0.000000 0.000000 0.000000 -1.098603 0.875657 -9.221740 -0.869963 0.124501 0.670128 0.170434 -1.987496 5.491786 0.000000 0.000000 0.000000 -2.535054 0.172174 -5.393459 0.879710 -0.410630 -0.189000 4.633648 -2.348554 -3.742243 -3.614971 2.838874 -3.618564 0.000000 0.000000 0.000000 -7.751384 -3.528542 0.878132 -63.862804 -28.045905 9.578339 -156.503982 -71.669917 154.314204 0.000000 0.000000 0.000000 5.868050 13.698511 4.666107 41.607903 44.181833 11.869278 176.287424 78.240721 178.232692 0.000000 0.000000 0.000000 
0.012207 0.936862 -0.057271 -3.595325 2.740598 7.066486 4.151290 -0.276335 -2.382292 6.423711 0.320733 -11.162832 0.660558 6.052912 12.137714 0.000000 0.000000 0.000000 -0.903583 0.895613 -9.351330 -1.045457 0.122795 0.207894 0.242708 -1.790374 5.477878 0.000000 0.000000 0.000000 -2.563400 0.176936 -5.698144 0.975082 -0.455547 -0.194113 4.575237 -2.202497 -3.722718 -3.468284 2.736683 -3.472408 0.000000 0.000000 0.000000 -7.075380 -3.613273 0.910204 -64.839262 -28.671784 10.146040 -158.647334 -70.823256 156.638190 0.000000 0.000000 0.000000 5.745513 13.204441 4.504154 43.961424 44.472151 12.871516 177.872577 77.265479 -179.614869 0.000000 0.000000 0.000000 
